<?xml version="1.0" encoding="iso-8859-1"?>
<!-- Uploaded to: SVG Repo, www.svgrepo.com, Generator: SVG Repo Mixer Tools -->
<svg fill="#000000" version="1.1" id="Layer_1" xmlns="http://www.w3.org/2000/svg" xmlns:xlink="http://www.w3.org/1999/xlink" 
	 viewBox="0 0 214.2 214.2" xml:space="preserve">
<g>
	<g>
		<g>
			<path d="M194.39,55.534h-39.024l-8.733-32.756c-0.463-1.735-2.036-2.944-3.833-2.944H71.4c-1.797,0-3.37,1.209-3.833,2.944
				l-8.733,32.756H19.81C8.886,55.534,0,64.425,0,75.355v99.19c0,10.929,8.886,19.821,19.81,19.821h174.58
				c10.924,0,19.81-8.892,19.81-19.822v-99.19C214.2,64.425,205.314,55.534,194.39,55.534z M194.39,186.434H19.81
				c-6.548,0-11.877-5.332-11.877-11.889v-99.19c0-6.557,5.328-11.888,11.877-11.888h42.07c1.797,0,3.37-1.209,3.833-2.944
				l8.733-32.756h65.307l8.733,32.756c0.463,1.735,2.035,2.944,3.833,2.944h42.07c6.548,0,11.877,5.332,11.877,11.888v99.19h0.001
				C206.267,181.102,200.939,186.434,194.39,186.434z"/>
			<path d="M158.667,99.167c-13.124,0-23.8,10.676-23.8,23.8c0,13.124,10.676,23.8,23.8,23.8c13.124,0,23.8-10.676,23.8-23.8
				S171.791,99.167,158.667,99.167z M158.667,138.833c-8.749,0-15.867-7.118-15.867-15.867c0-8.749,7.118-15.867,15.867-15.867
				c8.749,0,15.867,7.118,15.867,15.867C174.534,131.715,167.416,138.833,158.667,138.833z"/>
			<path d="M83.3,63.467h47.6c2.19,0,3.967-1.776,3.967-3.967v-23.8c0-2.19-1.776-3.967-3.967-3.967H83.3
				c-2.19,0-3.967,1.776-3.967,3.967v23.8C79.333,61.69,81.11,63.467,83.3,63.467z M87.267,39.667h39.667v15.867H87.267V39.667z"/>
			<path d="M136.345,100.11l-3.083-2.497c-1.702-1.377-4.201-1.117-5.58,0.587c-1.377,1.702-1.115,4.201,0.587,5.58l3.083,2.497
				c0.734,0.595,1.617,0.883,2.495,0.883c1.154,0,2.301-0.502,3.085-1.47C138.309,103.987,138.047,101.49,136.345,100.11z"/>
			<path d="M146.646,147.997c-1.972-0.963-4.346-0.145-5.303,1.826l-1.741,3.564c-0.961,1.968-0.143,4.342,1.826,5.303
				c0.56,0.275,1.152,0.403,1.737,0.403c1.468,0,2.88-0.818,3.568-2.227l1.737-3.564
				C149.434,151.334,148.616,148.959,146.646,147.997z"/>
			<path d="M175.99,149.823c-0.959-1.972-3.333-2.785-5.303-1.826c-1.97,0.963-2.787,3.337-1.825,5.305l1.737,3.564
				c0.687,1.41,2.1,2.227,3.568,2.227c0.585,0,1.178-0.128,1.737-0.403c1.97-0.961,2.787-3.335,1.826-5.303L175.99,149.823z"/>
			<path d="M194.363,127.052l-3.864-0.893c-2.125-0.496-4.267,0.837-4.757,2.971c-0.494,2.134,0.837,4.265,2.971,4.757l3.864,0.893
				c0.3,0.07,0.601,0.103,0.897,0.103c1.805,0,3.438-1.24,3.86-3.074C197.828,129.674,196.497,127.543,194.363,127.052z"/>
			<path d="M126.835,126.159l-3.864,0.893c-2.134,0.492-3.465,2.622-2.971,4.757c0.422,1.834,2.055,3.074,3.86,3.074
				c0.296,0,0.597-0.033,0.897-0.103l3.864-0.893c2.134-0.492,3.465-2.622,2.971-4.757
				C131.098,126.993,128.958,125.654,126.835,126.159z"/>
			<path d="M189.066,103.78c1.702-1.379,1.964-3.877,0.587-5.58c-1.383-1.708-3.883-1.966-5.58-0.587l-3.083,2.497
				c-1.702,1.379-1.964,3.877-0.587,5.58c0.785,0.968,1.931,1.47,3.085,1.47c0.877,0,1.76-0.289,2.495-0.883L189.066,103.78z"/>
			<path d="M158.667,95.201c2.19,0,3.967-1.776,3.967-3.967v-3.967c0-2.19-1.776-3.967-3.967-3.967c-2.19,0-3.967,1.776-3.967,3.967
				v3.967C154.7,93.424,156.476,95.201,158.667,95.201z"/>
			<rect x="15.867" y="75.367" width="19.833" height="7.933"/>
			<rect x="43.633" y="75.367" width="19.833" height="7.933"/>
			<rect x="71.4" y="75.367" width="19.833" height="7.933"/>
			<path d="M107.1,99.167H23.8c-2.19,0-3.967,1.776-3.967,3.967v71.4c0,2.19,1.776,3.967,3.967,3.967h83.3
				c2.19,0,3.967-1.776,3.967-3.967v-71.4C111.067,100.943,109.29,99.167,107.1,99.167z M103.134,170.568L103.134,170.568H27.767
				V107.1h75.367V170.568z"/>
		</g>
	</g>
</g>
</svg>